<svg viewBox="0 0 220 170" width="440" height="340" xmlns="http://www.w3.org/2000/svg" shape-rendering="crispEdges">
  <!-- Cosmo the space tardigrade — hero pose -->
  <rect width="220" height="170" fill="#131127"/>
  <!-- stars -->
  <rect x="30" y="24" width="5" height="5" fill="#ffffff"/>
  <rect x="186" y="36" width="4" height="4" fill="#ffffff" opacity=".7"/>
  <rect x="40" y="130" width="4" height="4" fill="#ffffff" opacity=".6"/>
  <rect x="172" y="120" width="5" height="5" fill="#ffd166"/>
  <rect x="14" y="86" width="3" height="3" fill="#ffffff" opacity=".5"/>
  <rect x="204" y="142" width="3" height="3" fill="#ffffff" opacity=".5"/>
  <!-- body -->
  <rect x="56" y="36" width="96" height="12" fill="#b8a6e8"/>
  <rect x="44" y="48" width="120" height="60" fill="#b8a6e8"/>
  <rect x="56" y="108" width="108" height="12" fill="#9784cc"/>
  <rect x="164" y="60" width="12" height="40" fill="#b8a6e8"/>
  <!-- segments -->
  <rect x="92" y="48" width="4" height="60" fill="#9784cc"/>
  <rect x="124" y="48" width="4" height="60" fill="#9784cc"/>
  <!-- bubble helmet -->
  <rect x="44" y="44" width="52" height="4" fill="#dff3ff" opacity=".8"/>
  <rect x="40" y="48" width="4" height="44" fill="#dff3ff" opacity=".8"/>
  <rect x="44" y="92" width="52" height="4" fill="#dff3ff" opacity=".8"/>
  <rect x="96" y="48" width="4" height="44" fill="#dff3ff" opacity=".8"/>
  <!-- face -->
  <rect x="56" y="60" width="14" height="14" fill="#241d3d"/>
  <rect x="60" y="63" width="5" height="5" fill="#ffffff"/>
  <rect x="48" y="82" width="10" height="6" fill="#e8a8c8"/>
  <rect x="58" y="86" width="14" height="4" fill="#241d3d"/>
  <!-- legs -->
  <rect x="58" y="120" width="14" height="18" fill="#9784cc"/>
  <rect x="88" y="120" width="14" height="18" fill="#9784cc"/>
  <rect x="118" y="120" width="14" height="18" fill="#9784cc"/>
  <rect x="148" y="120" width="14" height="18" fill="#9784cc"/>
</svg>
